<svg width="25" height="24" viewBox="0 0 25 24" fill="none"
    xmlns="http://www.w3.org/2000/svg">
    <path d="M9.434 5.48617C9.77721 5.82919 10.1216 6.17123 10.4632 6.51581C11.0657 7.12355 11.0669 7.83243 10.4668 8.43549C10.0363 8.86811 9.60834 9.30327 9.16947 9.72711C9.0535 9.83898 9.04433 9.93113 9.10309 10.0721C9.39125 10.7642 9.80786 11.377 10.2766 11.9533C11.2188 13.1116 12.2843 14.1397 13.5551 14.9374C13.8272 15.1082 14.1283 15.2325 14.4117 15.3864C14.5576 15.4655 14.6575 15.4403 14.7743 15.3196C15.2036 14.8759 15.6432 14.4419 16.0819 14.0071C16.6565 13.4378 17.3776 13.4366 17.9547 14.0083C18.6599 14.7068 19.3619 15.4086 20.061 16.113C20.6475 16.7038 20.6428 17.4257 20.053 18.0208C19.6546 18.423 19.2335 18.8046 18.8567 19.2259C18.3083 19.8391 17.6203 20.0377 16.8333 19.9944C15.6895 19.9315 14.6343 19.552 13.6181 19.058C11.3593 17.9603 9.42834 16.4389 7.81302 14.5161C6.61862 13.0944 5.63154 11.5472 4.98241 9.79974C4.66848 8.9546 4.44397 8.08896 4.5123 7.17334C4.55447 6.60835 4.76668 6.12769 5.18311 5.73138C5.63018 5.30559 6.05617 4.85774 6.4966 4.42472C7.0733 3.85758 7.79467 3.85875 8.37274 4.42628C8.72962 4.77652 9.08044 5.13262 9.434 5.48617Z" fill="black"/>
</svg>
