<svg width="25" height="24" viewBox="0 0 25 24" fill="none"
    xmlns="http://www.w3.org/2000/svg">
    <path fill-rule="evenodd" clip-rule="evenodd" d="M20.405 11.8208C20.405 11.2093 20.3501 10.6212 20.2482 10.0566H12.125V13.3929H16.7668C16.5669 14.4711 15.9592 15.3845 15.0457 15.9961V18.1602H17.8332C19.4641 16.6587 20.405 14.4475 20.405 11.8208Z" fill="#4285F4"/>
    <path fill-rule="evenodd" clip-rule="evenodd" d="M12.1256 20.2499C14.4543 20.2499 16.4067 19.4776 17.8338 18.1603L15.0463 15.9962C14.274 16.5137 13.286 16.8195 12.1256 16.8195C9.87916 16.8195 7.97774 15.3023 7.2995 13.2637H4.41797V15.4983C5.83717 18.3171 8.75399 20.2499 12.1256 20.2499Z" fill="#34A853"/>
    <path fill-rule="evenodd" clip-rule="evenodd" d="M7.29892 13.2641C7.12642 12.7466 7.02841 12.1938 7.02841 11.6254C7.02841 11.0569 7.12642 10.5041 7.29892 9.98661V7.75195H4.41739C3.83324 8.91633 3.5 10.2336 3.5 11.6254C3.5 13.0171 3.83324 14.3344 4.41739 15.4988L7.29892 13.2641Z" fill="#FBBC05"/>
    <path fill-rule="evenodd" clip-rule="evenodd" d="M12.1256 6.4304C13.3919 6.4304 14.5288 6.86557 15.4227 7.72023L17.8965 5.24642C16.4028 3.85466 14.4504 3 12.1256 3C8.75399 3 5.83717 4.93278 4.41797 7.75159L7.2995 9.98625C7.97774 7.94761 9.87916 6.4304 12.1256 6.4304Z" fill="#EA4335"/>
</svg>
